# xmcd
#
# Track frame offsets:
#	150
#	17102
#	35046
#	48674
#	65425
#	83565
#	103452
#	125889
#	143704
#	160367
#	176427
#	195259
#	213380
#	229576
#	247555
#
# Disc length: 3524 seconds
#
# Revision: 1
# Processed by: cddbd v1.5.2PL0 Copyright (c) Steve Scherf et al.
# Submitted via: audiograbber 1.83.01
#
DISCID=cc0dc20f
DTITLE=HOT COUNTRY APRIL 2003 - CB60248
DYEAR=2003
DGENRE=
TTITLE0=CHAD BROCK - THAT WAS US
TTITLE1=GEORGE STRAIT - THE ROAD LESS TRAVELED
TTITLE2=TERRI CLARK - I WANNA DO IT ALL
TTITLE3=LONESTAR - MY FRONT PORCH LOOKIN' IN
TTITLE4=RONNIE BOWMAN - RISE ABOVE
TTITLE5=SARA EVANS - BACKSEAR OF A GREYHOUND BUS
TTITLE6=STEVE WARINER - SNOWALL ON THE SAND
TTITLE7=CHARLIE ALLAN - BETTER SAID THAN DONE
TTITLE8=TRICK PONY - A BOY LIKE YOU
TTITLE9=STEVE AZAR - DAMN THE MONEY
TTITLE10=BLAKE SHELDON - THE DREAMER
TTITLE11=JENNIFER HANSON - HALF A HEART TATOO
TTITLE12=JOE NICHOLS - SHE ONLY SMOKES WHEN SHE DRINKS
TTITLE13=GARY ALLAN - I'M DOING MY BEST
TTITLE14=TANYA TUCKER - OLD WEAKNESS(COMING ON STRONG)
EXTD=
EXTT0=
EXTT1=
EXTT2=
EXTT3=
EXTT4=
EXTT5=
EXTT6=
EXTT7=
EXTT8=
EXTT9=
EXTT10=
EXTT11=
EXTT12=
EXTT13=
EXTT14=
PLAYORDER=
